<svg width="18" height="18" viewBox="0 0 18 18" fill="#fff" xmlns="http://www.w3.org/2000/svg">
<path d="M12.39 4.23752L10.065 2.43752C9.76502 2.13752 9.09002 1.98752 8.64002 1.98752H5.79001C4.89001 1.98752 3.91502 2.66252 3.69002 3.56252L1.89002 9.03752C1.51502 10.0875 2.19002 10.9875 3.31502 10.9875H6.31502C6.76502 10.9875 7.14002 11.3625 7.06502 11.8875L6.69002 14.2875C6.54002 14.9625 6.99002 15.7125 7.66502 15.9375C8.26502 16.1625 9.01502 15.8625 9.31502 15.4125L12.39 10.8375" stroke="white" stroke-width="1.5" stroke-miterlimit="10"/>
<path d="M16.215 4.23751V11.5875C16.215 12.6375 15.765 13.0125 14.715 13.0125H13.965C12.915 13.0125 12.465 12.6375 12.465 11.5875V4.23751C12.465 3.18751 12.915 2.81251 13.965 2.81251H14.715C15.765 2.81251 16.215 3.18751 16.215 4.23751Z" stroke="white" stroke-width="1.5" stroke-linecap="round" stroke-linejoin="round"/>
</svg>
